<svg width="64px" height="64px" viewBox="0 0 64 64" version="1.1" xmlns="http://www.w3.org/2000/svg" xmlns:xlink="http://www.w3.org/1999/xlink">
    <defs>
        <linearGradient x1="100%" y1="100%" x2="0%" y2="0%" id="smart-icon-2">
            <stop stop-color="#FF7676" offset="0%"></stop>
            <stop stop-color="#F54EA2" offset="100%"></stop>
        </linearGradient>
    </defs>
    <g id="Page-1" stroke="none" stroke-width="1" fill="none" fill-rule="evenodd">
        <g id="wireframe" transform="translate(-941.000000, -5823.000000)">
            <g id="Smart-contract" transform="translate(390.000000, 5692.000000)">
                <g id="API" transform="translate(551.000000, 114.000000)">
                    <g id="Group-21" transform="translate(0.000000, 17.000000)">
                        <g id="API">
                            <rect id="Rectangle-7-Copy-2" fill="url(#smart-icon-2)" x="0" y="0" width="64" height="64" rx="8"></rect>
                            <g id="Group-7" transform="translate(15.000000, 17.000000)">
                                <polygon id="Clip-6" points="0 6.61118838 34 6.61118838 34 28.2474747 0 28.2474747"></polygon>
                                <path d="M17.7727273,17.4370975 L13.1363636,17.4370975 C12.7090455,17.4370975 12.3636364,17.0916884 12.3636364,16.6643702 C12.3636364,16.237052 12.7090455,15.8916429 13.1363636,15.8916429 L17.7727273,15.8916429 C18.2000455,15.8916429 18.5454545,16.237052 18.5454545,16.6643702 C18.5454545,17.0916884 18.2000455,17.4370975 17.7727273,17.4370975 M9.57872727,15.0022338 L4.82027273,17.3343247 C4.68195455,17.3915066 4.52818182,17.4293702 4.39218182,17.4293702 C3.88681818,17.4293702 3.47263636,17.0090066 3.47263636,16.3398247 C3.47263636,15.8050975 3.71759091,15.4032793 4.16268182,15.2131884 L7.72727273,13.5896884 L7.72727273,13.5502793 L4.16268182,11.9252338 C3.71759091,11.7343702 3.47263636,11.3333247 3.47263636,10.7985975 C3.47263636,10.1301884 3.88681818,9.70982475 4.39218182,9.70982475 C4.52818182,9.70982475 4.68195455,9.74768838 4.82027273,9.8048702 L9.57872727,12.1361884 C10.2533182,12.4615066 10.574,12.9197338 10.574,13.5688247 C10.574,14.2194611 10.2533182,14.6784611 9.57872727,15.0022338 M1.54468182,6.61118838 C0.691590909,6.61118838 0,7.30277929 0,8.15509747 L0,28.5917591 C0,29.44485 0.691590909,30.1364409 1.54468182,30.1364409 L32.4553182,30.1364409 C33.3084091,30.1364409 34,29.44485 34,28.5917591 L34,8.15509747 C34,7.30277929 33.3084091,6.61118838 32.4553182,6.61118838 L1.54468182,6.61118838 Z" id="Fill-5" fill="#FFFFFF"></path>
                                <path d="M32.4591045,5.07346111 L9.26801364,5.07346111 C8.41724091,5.07346111 7.72719545,4.38341566 7.72719545,3.53264293 L7.72719545,1.97791566 C7.72719545,1.12714293 8.41724091,0.437097475 9.26801364,0.437097475 L32.4591045,0.437097475 C33.31065,0.437097475 33.9999227,1.12714293 33.9999227,1.97791566 L33.9999227,3.53264293 C33.9999227,4.38341566 33.31065,5.07346111 32.4591045,5.07346111" id="Fill-1" fill="#FFFFFF"></path>
                                <path d="M4.63713636,5.07346111 L1.54468182,5.07346111 C0.692363636,5.07346111 0,4.38109747 0,3.52877929 L0,1.98177929 C0,1.12946111 0.692363636,0.437097475 1.54468182,0.437097475 L4.63713636,0.437097475 C5.49022727,0.437097475 6.18181818,1.12946111 6.18181818,1.98177929 L6.18181818,3.52877929 C6.18181818,4.38109747 5.49022727,5.07346111 4.63713636,5.07346111" id="Fill-3" fill="#FFFFFF"></path>
                            </g>
                        </g>
                    </g>
                </g>
            </g>
        </g>
    </g>
</svg>