<svg width="64px" height="64px" viewBox="0 0 64 64" version="1.1" xmlns="http://www.w3.org/2000/svg" xmlns:xlink="http://www.w3.org/1999/xlink">
    <defs>
        <linearGradient x1="1.44424438%" y1="0%" x2="100%" y2="100%" id="smart-icon-3">
            <stop stop-color="#17EAD9" offset="0%"></stop>
            <stop stop-color="#6078EA" offset="100%"></stop>
        </linearGradient>
        <polygon id="path-2" points="0.00361860662 0.881278496 37.9822465 0.881278496 37.9822465 16.0752056 0.00361860662 16.0752056"></polygon>
        <polygon id="path-4" points="0 0.88895514 37.9857109 0.88895514 37.9857109 25.8990801 0 25.8990801"></polygon>
    </defs>
    <g id="Page-1" stroke="none" stroke-width="1" fill="none" fill-rule="evenodd">
        <g id="wireframe" transform="translate(-941.000000, -5937.000000)">
            <g id="Smart-contract" transform="translate(390.000000, 5692.000000)">
                <g id="SDK" transform="translate(551.000000, 228.000000)">
                    <g id="sdk" transform="translate(0.000000, 17.000000)">
                        <rect id="Rectangle-7-Copy-2" fill="url(#smart-icon-3)" x="0" y="0" width="64" height="64" rx="8"></rect>
                        <g id="Group-14" transform="translate(13.000000, 12.000000)">
                            <path d="M36.7689965,17.8734853 C36.5984207,18.0226275 36.415342,18.1637321 36.2081504,18.2842961 L20.856329,27.2051422 C19.748926,27.8490435 18.3825335,27.8508296 17.2742374,27.2105006 L1.7866698,18.269114 C1.57590599,18.1476569 1.39104113,18.0047662 1.21689307,17.8538378 C-0.571027027,19.4113467 -0.384376028,22.3745429 1.7866698,23.6275159 L17.2742374,32.5689025 C18.3825335,33.2092315 19.748926,33.2074454 20.856329,32.5635441 L36.2081504,23.642698 C38.3720517,22.3852597 38.5533443,19.4283149 36.7689965,17.8734853" id="Fill-1" fill="#FFFFFF"></path>
                            <g id="Group-5" transform="translate(0.000000, 24.117095)">
                                <mask id="mask-3" fill="white">
                                    <use xlink:href="#path-2"></use>
                                </mask>
                                <g id="Clip-4"></g>
                                <path d="M36.7689965,0.900925969 C36.5984207,1.05006816 36.415342,1.19117274 36.2081504,1.31173678 L20.856329,10.2325828 C19.748926,10.8764841 18.3825335,10.8782703 17.2742374,10.2379412 L1.7866698,1.29655464 C1.57590599,1.17509753 1.39104113,1.03220682 1.21689307,0.881278496 C-0.571027027,2.43878731 -0.384376028,5.40198355 1.7866698,6.65495652 L17.2742374,15.5963431 C18.3825335,16.2366722 19.748926,16.234886 20.856329,15.5909847 L36.2081504,6.67013866 C38.3720517,5.41270035 38.5533443,2.45575558 36.7689965,0.900925969" id="Fill-3" fill="#FFFFFF" mask="url(#mask-3)"></path>
                            </g>
                            <g id="Group-8" transform="translate(0.000000, 0.004287)">
                                <mask id="mask-5" fill="white">
                                    <use xlink:href="#path-4"></use>
                                </mask>
                                <g id="Clip-7"></g>
                                <path d="M31.6434172,10.5729307 C31.335309,10.750651 30.9119953,10.8113796 30.4458143,10.7399342 L26.2064254,10.0361974 L26.4448743,11.2864912 L27.5933584,11.9553984 C28.094369,12.2465382 28.0872244,12.6260917 27.6433702,12.8815088 C27.1825476,13.1485358 26.5315018,13.1485358 26.0304912,12.857396 L20.3577297,9.56019271 C19.8629706,9.27262515 19.8585053,8.89217861 20.3202209,8.62604465 C20.7622891,8.3706275 21.4258378,8.3706275 21.9197039,8.65819506 L24.334557,10.0612033 L23.8371187,6.99173208 C23.801396,6.76489307 23.894275,6.56216686 24.1291516,6.42731375 C24.5176357,6.20315394 25.1240282,6.1852926 25.5276945,6.42016921 C25.7161316,6.53001645 25.8197274,6.66844183 25.8375887,6.81490482 L26.0599624,8.7466087 L31.0352385,9.51375323 C31.3049448,9.55662045 31.507671,9.62449354 31.655027,9.7093349 C32.0578002,9.94421152 32.0792338,10.3210858 31.6434172,10.5729307 M22.5001974,15.7812973 L20.7837227,16.7717086 C20.3586228,17.017302 19.8370717,17.0137297 19.4209025,16.7717086 L13.5900682,13.3825194 C13.1792573,13.1449636 13.1640752,12.8359624 13.588282,12.590369 L15.3047568,11.5990646 C16.8497626,10.7077838 18.2858143,10.4380776 19.8531469,10.8997932 C20.3979177,11.0596522 20.9668014,11.3043525 21.9938284,11.9009213 C23.0217485,12.4983831 23.4486345,12.8323901 23.7228061,13.1485358 C24.5095981,14.0541058 24.0443102,14.8891234 22.5001974,15.7812973 M16.2844512,19.5036005 C15.2636757,20.0939177 14.1705617,20.3564794 13.3909142,20.4600752 C12.9917133,20.5127662 12.6175182,20.4448931 12.3603149,20.2957509 C11.9816545,20.0760564 11.9771892,19.724188 12.3781763,19.4928837 C12.5496451,19.3937532 12.7586228,19.3303455 12.961349,19.2981951 C13.8883525,19.1454806 14.4536639,18.9820494 14.988611,18.6721551 C15.7521833,18.2318731 15.8155911,17.7844465 15.320832,17.4959859 C14.8993043,17.2512855 14.3777532,17.2486063 13.3998449,17.6781716 L12.9631351,17.8666087 C11.2788108,18.6051751 9.78203055,18.6685828 8.51655464,17.9335887 C7.19035018,17.1628719 7.31270035,16.0795817 8.88181904,15.1731187 C9.68111398,14.7114031 10.6822421,14.3738237 11.3824066,14.2818378 C11.7941105,14.2282538 12.1191868,14.2818378 12.3763901,14.43098 C12.7666604,14.657819 12.7586228,14.9962914 12.3710317,15.2195582 C12.2236757,15.3043995 12.0200564,15.3722726 11.7932174,15.4115676 C11.2770247,15.5178425 10.7001034,15.7027074 10.2508907,15.9616968 C9.61770623,16.3278543 9.59091422,16.7118731 10.0428061,16.9744348 C10.4473655,17.2093114 11.0099976,17.2021669 11.9700447,16.7824254 L12.4058613,16.5948813 C14.1151915,15.8482773 15.5637462,15.7920141 16.8595864,16.5448696 C18.160785,17.3012973 18.1732879,18.4131657 16.2844512,19.5036005 M36.1998449,10.3094759 L20.7122773,1.36719624 C19.6039812,0.727760282 18.2366957,0.729546416 17.1292926,1.37255464 L1.77836428,10.2942938 C-0.59719389,11.6740823 -0.591835488,15.1061387 1.78640188,16.4787826 L17.2739694,25.4201692 C18.3822656,26.0604982 19.7495511,26.0587121 20.8560611,25.4148108 L36.2078825,16.4939647 C38.5825476,15.1132832 38.5780823,11.6821199 36.1998449,10.3094759" id="Fill-6" fill="#FFFFFF" mask="url(#mask-5)"></path>
                            </g>
                            <path d="M20.4068484,12.8224771 C19.6798919,12.4000564 19.2074595,12.1830411 18.8895276,12.0830176 C18.1304207,11.8552855 17.3632761,12.0160376 16.6434642,12.4313137 L15.9182938,12.8501622 L15.9227591,12.9251798 L20.2201974,15.4230881 L20.3434407,15.4230881 L21.0695041,15.0033467 C21.7893161,14.5880705 22.067953,14.1433231 21.6839342,13.7066134 C21.5124653,13.5217485 21.1400564,13.24847 20.4068484,12.8224771" id="Fill-9" fill="#FFFFFF"></path>
                        </g>
                    </g>
                </g>
            </g>
        </g>
    </g>
</svg>