<svg width="64px" height="64px" viewBox="0 0 64 64" version="1.1" xmlns="http://www.w3.org/2000/svg" xmlns:xlink="http://www.w3.org/1999/xlink">
    <defs>
        <linearGradient x1="0%" y1="0%" x2="100%" y2="100%" id="smart-icon-4">
            <stop stop-color="#43E695" offset="0%"></stop>
            <stop stop-color="#3BB2B8" offset="100%"></stop>
        </linearGradient>
    </defs>
    <g id="Page-1" stroke="none" stroke-width="1" fill="none" fill-rule="evenodd">
        <g id="wireframe" transform="translate(-941.000000, -6051.000000)">
            <g id="Smart-contract" transform="translate(390.000000, 5692.000000)">
                <g id="JVM" transform="translate(551.000000, 342.000000)">
                    <g id="Java" transform="translate(0.000000, 17.000000)">
                        <rect id="Rectangle-7-Copy-2" fill="url(#smart-icon-4)" x="0" y="0" width="64" height="64" rx="8"></rect>
                        <g id="Group-15" transform="translate(17.000000, 14.000000)" fill="#FFFFFF">
                            <path d="M21.6989143,0.866742857 L21.6989143,6.50588571 C21.6989143,6.98074286 22.0829143,7.36474286 22.5577714,7.36474286 L28.1969143,7.36474286 C28.9623429,7.36474286 29.3446286,6.43988571 28.8037714,5.89902857 L23.1646286,0.259885714 C22.6237714,-0.280971429 21.6989143,0.101314286 21.6989143,0.866742857" id="Fill-1"></path>
                            <path d="M8.57142857,30.8571429 C7.62942857,30.8571429 6.86657143,30.0934286 6.86657143,29.1522857 L6.86657143,18.8477143 C6.86657143,17.9065714 7.62942857,17.1428571 8.57142857,17.1428571 L29.1428571,17.1428571 L29.1428571,10.2857143 C29.1428571,9.41914286 28.4528571,8.71628571 27.6017143,8.71628571 L21.438,8.71628571 C20.5808571,8.71628571 19.8857143,8.00828571 19.8857143,7.13485714 L19.8857143,1.56942857 C19.8857143,0.702857143 19.1957143,0 18.3445714,0 L1.55228571,0 C0.695142857,0 0,0.708 0,1.58142857 L0,34.4185714 C0,35.292 0.695142857,36 1.55228571,36 L27.5905714,36 C28.4477143,36 29.1428571,35.292 29.1428571,34.4185714 L29.1428571,30.8571429 L8.57142857,30.8571429 Z" id="Fill-3"></path>
                            <polygon id="Fill-5" points="29.8317429 22.3706571 29.0200286 24.8169429 30.6648857 24.8169429 29.8626 22.3706571"></polygon>
                            <polygon id="Fill-7" points="18.0753429 22.3706571 17.2636286 24.8169429 18.9084857 24.8169429 18.1062 22.3706571"></polygon>
                            <path d="M32.0834571,27.4901143 C31.7543143,27.4901143 31.4877429,27.2946857 31.3737429,26.9552571 L31.0866,26.1024 L28.5880286,26.1024 L28.3111714,26.9552571 C28.1980286,27.2946857 27.9297429,27.4901143 27.6014571,27.4901143 C27.2208857,27.4901143 26.8711714,27.2124 26.8711714,26.7812571 C26.8711714,26.6784 26.8917429,26.5755429 26.9226,26.4932571 L28.8143143,21.2604 C29.0097429,20.7049714 29.3174571,20.3766857 29.8523143,20.3766857 C30.3871714,20.3766857 30.7060286,20.7049714 30.9014571,21.2604 L32.7614571,26.4932571 C32.7923143,26.5755429 32.8137429,26.6784 32.8137429,26.7812571 C32.8137429,27.2124 32.4631714,27.4901143 32.0834571,27.4901143 Z M26.7048857,21.4044 L24.9254571,26.6064 C24.7000286,27.2535429 24.4120286,27.4901143 23.9697429,27.4901143 C23.5171714,27.4901143 23.2300286,27.2535429 23.0028857,26.6064 L21.2251714,21.4044 C21.1943143,21.3015429 21.1728857,21.1884 21.1728857,21.0855429 C21.1728857,20.6955429 21.4823143,20.3766857 21.9143143,20.3766857 C22.2631714,20.3766857 22.5100286,20.5618286 22.6437429,20.9621143 L23.9903143,25.1261143 L24.0211714,25.1261143 L25.2957429,20.9621143 C25.4191714,20.5618286 25.6763143,20.3766857 26.0260286,20.3766857 C26.4580286,20.3766857 26.7554571,20.6955429 26.7554571,21.0855429 C26.7554571,21.1884 26.7348857,21.3015429 26.7048857,21.4044 Z M20.3268857,27.4901143 C19.9977429,27.4901143 19.7311714,27.2946857 19.6171714,26.9552571 L19.3300286,26.1024 L16.8314571,26.1024 L16.5546,26.9552571 C16.4414571,27.2946857 16.1731714,27.4901143 15.8448857,27.4901143 C15.4643143,27.4901143 15.1146,27.2124 15.1146,26.7812571 C15.1146,26.6784 15.1360286,26.5755429 15.1668857,26.4932571 L17.0577429,21.2604 C17.2531714,20.7049714 17.5617429,20.3766857 18.0966,20.3766857 C18.6306,20.3766857 18.9494571,20.7049714 19.1448857,21.2604 L21.0048857,26.4932571 C21.0357429,26.5755429 21.0571714,26.6784 21.0571714,26.7812571 C21.0571714,27.2124 20.7074571,27.4901143 20.3268857,27.4901143 Z M14.3826,24.9204 C14.3826,26.6372571 13.4671714,27.5415429 11.8634571,27.5415429 C11.2154571,27.5415429 10.5374571,27.2844 10.2494571,26.9552571 C10.1157429,26.8018286 10.0437429,26.6166857 10.0437429,26.4315429 C10.0437429,26.0715429 10.3317429,25.7938286 10.7123143,25.7938286 C10.8974571,25.7938286 11.0620286,25.8658286 11.2874571,26.0201143 C11.4528857,26.1332571 11.6886,26.2052571 11.9157429,26.2052571 C12.4908857,26.2052571 12.8714571,25.8864 12.8714571,25.0232571 L12.8714571,21.1781143 C12.8714571,20.6852571 13.1894571,20.3766857 13.6214571,20.3766857 C14.0637429,20.3766857 14.3826,20.6852571 14.3826,21.1781143 L14.3826,24.9204 Z M32.5728857,18.8569714 L10.2837429,18.8569714 C9.33831429,18.8569714 8.57117143,19.6241143 8.57117143,20.5695429 L8.57117143,27.4309714 C8.57117143,28.3764 9.33831429,29.1426857 10.2837429,29.1426857 L32.5728857,29.1426857 C33.5191714,29.1426857 34.2854571,28.3764 34.2854571,27.4309714 L34.2854571,20.5695429 C34.2854571,19.6241143 33.5191714,18.8569714 32.5728857,18.8569714 Z" id="Fill-9"></path>
                        </g>
                    </g>
                </g>
            </g>
        </g>
    </g>
</svg>